HIERARCHY
ROOT Hips
{
 OFFSET 0.000000 0.000000 0.000000
 CHANNELS 6 Xposition Yposition Zposition Yrotation Xrotation Zrotation
 JOINT Chest
 {
  OFFSET 0.000000 9.585900 0.002600
  CHANNELS 3 Yrotation Xrotation Zrotation
  JOINT Chest2
  {
   OFFSET 0.000000 9.601200 -0.005300
   CHANNELS 3 Yrotation Xrotation Zrotation
   JOINT Chest3
   {
    OFFSET 0.000000 9.561800 0.000000
    CHANNELS 3 Yrotation Xrotation Zrotation
    JOINT Chest4
    {
     OFFSET 0.000000 9.552100 0.000000
     CHANNELS 3 Yrotation Xrotation Zrotation
     JOINT Neck
     {
      OFFSET 0.000000 14.453000 0.000000
      CHANNELS 3 Yrotation Xrotation Zrotation
      JOINT Head
      {
       OFFSET 0.000000 8.936500 -0.011300
       CHANNELS 3 Yrotation Xrotation Zrotation
       End Site
       {
        OFFSET 0.000000 17.073600 -0.006000
       }
      }
     }
     JOINT RightCollar
     {
      OFFSET -2.921100 9.558500 0.000000
      CHANNELS 3 Yrotation Xrotation Zrotation
      JOINT RightShoulder
      {
       OFFSET -13.519700 0.000000 0.000000
       CHANNELS 3 Yrotation Xrotation Zrotation
       JOINT RightElbow
       {
        OFFSET 0.000000 -29.696600 0.000000
        CHANNELS 3 Yrotation Xrotation Zrotation
        JOINT RightWrist
        {
         OFFSET 0.000000 -24.004700 0.000000
         CHANNELS 3 Yrotation Xrotation Zrotation
         End Site
         {
          OFFSET 0.000000 -17.728500 0.000000
         }
        }
       }
      }
     }
     JOINT LeftCollar
     {
      OFFSET 2.921100 9.558500 0.000000
      CHANNELS 3 Yrotation Xrotation Zrotation
      JOINT LeftShoulder
      {
       OFFSET 13.519700 0.000000 0.000000
       CHANNELS 3 Yrotation Xrotation Zrotation
       JOINT LeftElbow
       {
        OFFSET 0.000000 -29.696600 0.000000
        CHANNELS 3 Yrotation Xrotation Zrotation
        JOINT LeftWrist
        {
         OFFSET 0.000000 -24.004700 0.000000
         CHANNELS 3 Yrotation Xrotation Zrotation
         End Site
         {
          OFFSET 0.000000 -17.728500 0.000000
         }
        }
       }
      }
     }
    }
   }
  }
 }
 JOINT RightHip
 {
  OFFSET -7.771700 -0.012900 -0.001300
  CHANNELS 3 Yrotation Xrotation Zrotation
  JOINT RightKnee
  {
   OFFSET 0.000000 -40.869800 0.001200
   CHANNELS 3 Yrotation Xrotation Zrotation
   JOINT RightAnkle
   {
    OFFSET 0.000000 -39.717900 0.002100
    CHANNELS 3 Yrotation Xrotation Zrotation
    JOINT RightToe
    {
     OFFSET 0.000000 -4.965400 11.033500
     CHANNELS 3 Yrotation Xrotation Zrotation
     End Site
     {
      OFFSET 0.000000 -1.423100 5.872300
     }
    }
   }
  }
 }
 JOINT LeftHip
 {
  OFFSET 7.771700 -0.012900 -0.001300
  CHANNELS 3 Yrotation Xrotation Zrotation
  JOINT LeftKnee
  {
   OFFSET 0.000000 -40.869800 0.001200
   CHANNELS 3 Yrotation Xrotation Zrotation
   JOINT LeftAnkle
   {
    OFFSET 0.000000 -39.717900 0.002100
    CHANNELS 3 Yrotation Xrotation Zrotation
    JOINT LeftToe
    {
     OFFSET 0.000000 -4.965400 11.033500
     CHANNELS 3 Yrotation Xrotation Zrotation
     End Site
     {
      OFFSET 0.000000 -1.423100 5.872300
     }
    }
   }
  }
 }
}
MOTION
Frames: 8
Frame Time: 0.008333
0.000000 85.388000 0.000000 0.000000 -5.767877 0.000000 0.000000 11.653817 0.000000 0.000000 -5.885947 0.000000 0.000000 -0.000000 0.000000 0.000000 -0.000000 0.000000 0.000000 12.528835 0.000000 0.000000 0.711642 0.000000 0.000000 -0.000000 0.000000 0.000000 0.000000 -90.000000 0.000000 -2.309062 0.000000 0.000000 2.309062 0.000000 0.000000 -0.000000 0.000000 0.000000 -0.000000 90.000000 0.000000 -2.309062 0.000000 0.000000 2.309062 0.000000 0.000000 8.520406 0.000000 0.000000 1.905762 0.000000 -0.000000 -4.658285 0.000000 0.000000 -0.000000 0.000000 0.000000 8.520406 0.000000 0.000000 1.905762 0.000000 -0.000000 -4.658285 0.000000 0.000000 -0.000000 0.000000
-69.123150 62.978533 12.280519 166.254640 -44.535195 -2.538029 8.080239 22.254558 4.128366 1.111934 3.347782 0.250951 1.790370 5.327703 0.427058 6.658318 18.683328 2.328850 4.139179 13.931609 2.601009 6.799977 -9.922258 3.292204 1.429649 3.920418 4.570416 -33.470374 -22.425222 -18.333998 -72.721677 -12.591362 53.976007 -18.452343 -16.678905 -0.408597 -8.439402 0.582379 2.231387 25.812759 -27.979546 20.238944 60.535137 -29.270068 -28.846661 31.207103 -16.759068 -1.238674 -6.277157 -15.973212 9.682056 -27.985807 75.101124 -27.109364 0.375853 -13.879498 -1.878955 -0.393717 0.829120 -0.189756 -2.348441 -22.652187 0.492440 14.264247 63.143355 6.561943 -1.981523 -7.151587 1.722639 -0.356611 -0.682938 -0.158398
-69.122597 62.978589 12.284286 166.256788 -44.557675 -2.542942 8.072462 22.233897 4.126379 1.114435 3.361947 0.253341 1.785790 5.325009 0.424935 6.660646 18.703972 2.331916 4.111063 14.018068 2.611226 6.757849 -9.733473 3.328634 1.434478 3.914981 4.585568 -33.439318 -22.386669 -18.322141 -72.577776 -12.721748 54.142182 -18.429882 -16.655193 -0.383984 -8.416192 0.611564 2.237963 25.800128 -27.895727 20.155474 60.453719 -29.483635 -29.094772 31.171393 -16.743429 -1.237131 -6.277534 -15.949916 9.685545 -27.990254 75.092858 -27.113591 0.377697 -13.877476 -1.879364 -0.393129 0.832540 -0.188099 -2.362949 -22.630499 0.499304 14.273677 63.141045 6.561898 -1.982479 -7.148911 1.723581 -0.353760 -0.683607 -0.160755
-69.122396 62.978933 12.288094 166.265632 -44.587512 -2.551189 8.058411 22.223625 4.121685 1.108757 3.338409 0.249831 1.789772 5.351966 0.428891 6.657780 18.714882 2.334748 4.090708 14.119141 2.622949 6.718227 -9.534754 3.367387 1.445656 3.926758 4.601000 -33.421486 -22.350324 -18.294751 -72.427955 -12.847438 54.308510 -18.403640 -16.636725 -0.361442 -8.396143 0.641963 2.239269 25.785818 -27.796937 20.078967 60.358384 -29.702461 -29.338484 31.141687 -16.730891 -1.230350 -6.283235 -15.918851 9.687950 -27.994810 75.086969 -27.119791 0.375124 -13.877720 -1.878049 -0.389808 0.835743 -0.187293 -2.400946 -22.603090 0.506263 14.297976 63.139852 6.565130 -1.967926 -7.144176 1.718056 -0.355478 -0.686568 -0.160878
-69.120972 62.982970 12.288572 166.266265 -44.653638 -2.557382 8.057423 22.256638 4.128284 1.103948 3.317760 0.245917 1.796567 5.384931 0.435613 6.625865 18.665188 2.313782 4.094606 14.262592 2.650032 6.678685 -9.330945 3.408444 1.479624 3.991557 4.621825 -33.417181 -22.317039 -18.242881 -72.277092 -12.968438 54.473773 -18.378099 -16.619281 -0.335121 -8.341290 0.732273 2.249813 25.755320 -27.707730 19.989317 60.248710 -29.921185 -29.576615 31.120858 -16.720960 -1.220427 -6.281986 -15.847612 9.685384 -27.969773 75.076915 -27.097249 0.386487 -13.863945 -1.875309 -0.400843 0.828393 -0.189894 -2.407767 -22.532128 0.507021 14.262420 63.133551 6.538794 -1.957136 -7.138353 1.706598 -0.349869 -0.690804 -0.158562
-69.120083 62.984977 12.290949 166.263291 -44.707030 -2.562418 8.064615 22.297663 4.140811 1.099150 3.283355 0.241021 1.798612 5.410032 0.439183 6.619742 18.645195 2.310211 4.076096 14.373296 2.667530 6.636392 -9.126238 3.452018 1.489094 4.015440 4.649519 -33.407931 -22.283365 -18.201692 -72.127418 -13.086956 54.636132 -18.354592 -16.601607 -0.303690 -8.282491 0.799244 2.248024 25.693299 -27.632409 19.901160 60.125648 -30.132602 -29.807961 31.103864 -16.712597 -1.209121 -6.275654 -15.793163 9.682978 -27.962557 75.068843 -27.082915 0.394854 -13.852161 -1.878339 -0.403808 0.823131 -0.190220 -2.413134 -22.477475 0.510247 14.256534 63.129806 6.535364 -1.952914 -7.133161 1.705469 -0.349290 -0.695189 -0.160441
-69.119999 62.985891 12.293903 166.261913 -44.755304 -2.566694 8.061542 22.297815 4.143486 1.102220 3.283305 0.241229 1.794551 5.413219 0.439910 6.625092 18.644903 2.314506 4.068480 14.450897 2.681424 6.576691 -8.890232 3.510307 1.500492 4.034754 4.691954 -33.400901 -22.249839 -18.173288 -71.979603 -13.203544 54.796666 -18.331883 -16.583610 -0.272875 -8.243620 0.849843 2.236062 25.638899 -27.547686 19.827356 59.990389 -30.336527 -30.036265 31.082628 -16.699873 -1.195513 -6.269628 -15.744808 9.680099 -27.962497 75.062443 -27.077782 0.404926 -13.847241 -1.876754 -0.406332 0.822097 -0.191299 -2.425426 -22.430495 0.511686 14.275674 63.127730 6.548546 -1.944999 -7.128347 1.708690 -0.362256 -0.698663 -0.166246
-69.120952 62.987098 12.295733 166.266569 -44.809892 -2.569454 8.056381 22.304833 4.141962 1.104528 3.281717 0.241026 1.793201 5.416492 0.443040 6.630809 18.644373 2.318029 4.057637 14.528976 2.698314 6.519032 -8.655237 3.568905 1.507946 4.063640 4.724459 -33.395871 -22.214671 -18.130676 -71.833370 -13.318590 54.954900 -18.308321 -16.564591 -0.244832 -8.232180 0.895104 2.230700 25.611774 -27.458008 19.746514 59.847662 -30.538952 -30.268119 31.051585 -16.674982 -1.173187 -6.266222 -15.690537 9.672062 -27.970162 75.059108 -27.081286 0.406512 -13.845491 -1.876706 -0.403243 0.821283 -0.190245 -2.436149 -22.377635 0.507812 14.290237 63.126691 6.560421 -1.959025 -7.119750 1.717264 -0.362099 -0.705381 -0.175275
